<svg width="114" height="112" fill="none" xmlns="http://www.w3.org/2000/svg"><path d="M75.496 97.046c20.768-12.043 27.869-38.704 15.892-59.54C79.41 16.67 52.872 9.516 32.104 21.559s-27.87 38.704-15.892 59.54c11.977 20.836 38.515 27.99 59.284 15.947z" fill="#FFE6A3" stroke="#FFD324" stroke-width="10"/><path d="M41.3 58.852a20.358 20.358 0 01.383-11.763 20.27 20.27 0 016.826-9.568 20.113 20.113 0 0122.38-1.473 20.238 20.238 0 018.012 8.59 20.351 20.351 0 011.909 11.614 20.315 20.315 0 01-4.837 10.72 20.172 20.172 0 01-9.951 6.216 20.13 20.13 0 01-15.313-2.033A20.284 20.284 0 0141.3 58.852zm37.177-10.005a18.396 18.396 0 00-5.612-9.063 18.233 18.233 0 00-20.163-2.666 18.336 18.336 0 00-7.755 7.296 18.449 18.449 0 001.33 20.382 18.306 18.306 0 008.637 6.217 18.226 18.226 0 0010.62.35 18.34 18.34 0 0011.104-8.572 18.482 18.482 0 001.839-13.944z" fill="#27120A"/><path d="M86.029 49.094a3.867 3.867 0 00-1.647-1.476l.136-.203c.143-.218.27-.446.383-.682l.124-.281c.065-.161.131-.319.189-.484l.078-.265v-.041a7.144 7.144 0 00.173-.794c.02-.136.041-.285.053-.434.013-.149 0-.236.021-.347v-.761c0-.133 0-.265-.029-.389s-.029-.248-.05-.364c-.02-.115-.036-.244-.06-.368l-.08-.372-.081-.322-.112-.414-.098-.302-.136-.384-.087-.224-.19-.45v-.038c-2.058-4.672-6.96-8.947-7.166-9.125-.704-.612-7.044-5.946-13.026-5.322-.442.046-.88.126-1.31.24-.95.252-2.218 1.145-3.544 2.481a3.38 3.38 0 00-1.379-.897 16.573 16.573 0 00-6.891-.906 10.393 10.393 0 00-4.739 1.639 10.451 10.451 0 00-3.429 3.67l-.202.364a2.84 2.84 0 00-1.276-.17 2.96 2.96 0 00-.795.203c-10.164 4.197-10.798 12.67-10.27 17.346.049.414.102.827.168 1.187l.09.513v.05l.107.516a3.54 3.54 0 001.38 2.096 3.515 3.515 0 002.416.65 3.547 3.547 0 002.199-1.1 7.983 7.983 0 014.573-2.37 3.358 3.358 0 001.717-.827 4.978 4.978 0 002.363.377 16.52 16.52 0 016.15.736 3.278 3.278 0 002.948-.517l.058.1a14.303 14.303 0 00.362.562l.074.107c.099.14.202.281.317.413l.082.116c.103.133.21.26.346.414l.095.116.354.413c.037.041.078.083.111.124l.362.368.145.145.32.302.215.198a21.711 21.711 0 001.14.93c.55.421 1.124.812 1.717 1.17.19.116.383.224.572.331.379.211.766.414 1.153.58.193.086.383.169.572.247.358.145.725.277 1.091.414a3.321 3.321 0 00.202 2.783c.206.372.411.76.597 1.186l.037.083c.074.157.144.318.218.496l.086.215c.062.145.12.298.177.45l.083.224c.082.223.16.455.222.666l.025.078c.066.22.131.447.189.675l.054.231c.045.182.086.372.123.562l.045.232c.05.26.095.525.128.794.11.864.445 1.684.972 2.377a3.414 3.414 0 00-.532 1.981v.604a9.837 9.837 0 01-.078 1.013c-.02.153-.05.314-.078.471v.075c-.033.16-.07.33-.124.512v.046a6.259 6.259 0 01-.156.492v.058a9.98 9.98 0 01-.206.5l-.04.095c-.08.17-.166.34-.269.525l-.04.066c-.12.211-.223.377-.33.53a3.538 3.538 0 00.984 4.99 3.508 3.508 0 001.865.559h1.445c.23 0 .47-.03.712-.054l.292-.03c.157 0 .317-.032.478-.053h.107c.547-.074 1.1-.17 1.647-.293l-.457-2.039.498 2.03c3.627-.827 6.562-2.543 8.731-5.16a17.465 17.465 0 003.594-8.142 2.848 2.848 0 00-.494-2.2c.132-.115.264-.223.412-.343.148-.12.338-.322.51-.496l.145-.153.3-.33.14-.166.037-.045.251-.31.16-.215.215-.302.152-.228.198-.318.132-.228.164-.305s.09-.17.124-.244c.033-.075.099-.211.152-.327l.02-.046.075-.173c.074-.174.14-.352.206-.53l.066-.21.032-.1.07-.227.07-.265v-.07l.058-.227.062-.294.041-.24c0-.103.037-.207.05-.318l.028-.223.037-.315v-.693c.078-3.312-1.247-6.269-2.371-8.175z" fill="#4D2211"/><path d="M58.298 29.718c-1.684 2.894-5.294 9.981-4.26 16.66a1.246 1.246 0 01-.399 1.162 1.233 1.233 0 01-1.199.247 18.596 18.596 0 00-6.933-.827 2.873 2.873 0 01-2.01-.59 2.897 2.897 0 01-1.081-1.8c-.527-2.923-.626-7.856 2.573-13.306 3.388-5.789 9.711-4.474 12.61-3.481a1.315 1.315 0 01.81.8 1.328 1.328 0 01-.11 1.135z" fill="#DE9F2D"/><path opacity=".5" d="M56.454 33.29l-.074-.05c-.362-.185-.68.336-.856.625-.655 1.063-.741 2.382-1.38 3.449-.358.6-.905 1.05-1.3 1.62-.478.704-.577 1.555-.745 2.37-.227 1.1-.573 2.117-1.482 2.832-1.462 1.15-4.014 1.381-5.706.67-2.405-1.009-2.627-3.792-2.536-6.347a18.342 18.342 0 00.04 6.12 2.9 2.9 0 001.083 1.8c.572.443 1.29.653 2.01.59a18.596 18.596 0 016.932.827 1.231 1.231 0 001.552-.776c.07-.204.086-.423.046-.634-.725-4.698.84-9.59 2.416-13.096z" fill="#FFD324"/><path d="M41.716 32.542a.79.79 0 01.85.172.8.8 0 01.187.85c-1.008 2.642-2.511 7.95-.502 12.334.305.665-.26 1.434-.98 1.55a10.088 10.088 0 00-5.763 3.002 1.436 1.436 0 01-2.11.02 1.445 1.445 0 01-.36-.694c-.96-4.416-1.264-13.128 8.678-17.234z" fill="#DE9F2D"/><path opacity=".5" d="M41.42 38.583c-.33-.045-.412.186-.569.62a6.453 6.453 0 00-.341 1.63c-.128 1.136-.058 2.298-.297 3.415-.412 1.993-2.47 3.721-4.364 4.292-1.42.413-2.548.149-3.149-.827.076.695.19 1.385.342 2.067a1.446 1.446 0 001.03 1.097 1.43 1.43 0 001.44-.423 10.088 10.088 0 015.763-3.002c.72-.115 1.285-.884.98-1.55-1.083-2.361-1.144-4.97-.836-7.319z" fill="#FFD324"/><path d="M82.85 45.017c3.471-5.326-6.685-14.129-6.685-14.129s-6.998-6.087-12.445-4.644c-3.433.91-15.232 16.313-4.22 25.277 11.013 8.964 20.716-2.456 23.35-6.504z" fill="#DE9F2D"/><path opacity=".5" d="M81.307 36.656c.066.145.132.294.19.447 1.21 3.204.242 6.657-1.898 9.208-.91 1.092-1.98 2.034-3.376 2.402-.898.24-1.84.207-2.746.414a11.412 11.412 0 00-2.882 1.24c-3.022 1.588-7.035 1.898-10.04.079a8.517 8.517 0 01-2.907-3.052 13.627 13.627 0 01-.997-2.24c-.135-.381-.444-1.316-.897-1.436l-.745.153c.379 2.738 1.704 5.376 4.47 7.65 11.005 8.968 20.716-2.456 23.351-6.504 1.618-2.432.33-5.636-1.523-8.361z" fill="#FFD324"/><path d="M82.139 48.374c-2.52 2.895-8.485 7.488-15.195 7.856a1.232 1.232 0 00-1.052.628 1.243 1.243 0 00.002 1.23 18.718 18.718 0 012.227 6.648 2.88 2.88 0 002.968 2.543c2.956-.087 7.773-1 12.433-5.272 4.94-4.52 2.359-10.465.794-13.108-.432-.727-1.63-1.182-2.177-.525z" fill="#DE9F2D"/><path opacity=".5" d="M85.107 58.533c-.622 1.142-1.416 2.3-2.553 2.974-1.05.624-2.181.578-3.355.574a3.167 3.167 0 00-2.47.997c-.45.447-.939.852-1.461 1.211-.988.662-2.17 1.24-3.384 1.2-1.952-.05-2.54-1.795-3.26-3.309a9.486 9.486 0 00-1.368-2.381 1.205 1.205 0 00-.712-.414 18.052 18.052 0 011.577 5.376c.087.72.44 1.381.99 1.852a2.87 2.87 0 001.978.69c2.956-.086 7.773-1 12.433-5.271a8.305 8.305 0 002.15-2.885 8.338 8.338 0 00.732-3.529 16.921 16.921 0 01-1.297 2.915z" fill="#FFD324"/><path d="M82.97 65.716a.8.8 0 00-.332-.816.792.792 0 00-.878-.01c-2.363 1.537-7.221 4.134-11.91 3.05-.712-.16-1.342.555-1.31 1.282a10.176 10.176 0 01-1.724 6.281 1.442 1.442 0 001.16 2.27c4.505.07 13.06-1.439 14.994-12.057z" fill="#DE9F2D"/><path opacity=".5" d="M75.865 75.338c-1.515.542-4.405 1.133-5.517-.476-.634-.913-.469-2.174-.551-3.22-.066-.774-.268-1.882-1.235-1.655a10.061 10.061 0 01-1.738 5.529 1.442 1.442 0 001.161 2.27c3.183.037 8.382-.711 11.844-4.892a12.624 12.624 0 01-3.964 2.444z" fill="#FFD324"/><path d="M80.117 37.955a1.782 1.782 0 00-.383-.798c-2.058-2.58-4.549-5.491-7.377-7.245-2.194-1.36-6.068-2.48-8.513-1.447-5.546 2.353-8.76 12.59-6.027 17.842 2.82 5.42 11.815 4.263 16.084 1.534 2.223-1.422 5.352-3.899 6.397-6.43a3.931 3.931 0 00-.18-3.456zm3.751 12.335a.71.71 0 00-.869-.505.672.672 0 00-.683.326c-1.272 1.87-3.549 3.308-5.484 4.429a19.909 19.909 0 01-3.557 1.596c-1.074.36-2.45.459-3.425 1.042-2.54 1.526-.333 5.73 1.956 6.202 1.61.335 3.062-.413 4.232-1.455.386-.348.765-1.373 1.19-1.683.93-.682 1.457.227 2.667.302a2.8 2.8 0 001.647-.273c3.474-1.935 3.35-6.782 2.326-9.982zm-3.792 16.691c-.169.1-.333.211-.494.327-1.474.864-3.174 1.162-4.853 1.36-1.038.12-2.326 0-3.113.827-1.107 1.166-.659 3.308.544 4.247 1.515 1.174 3.487.281 4.87-.645 1.568-1.055 4.252-3.27 4.36-5.313a.852.852 0 00-.4-.827.84.84 0 00-.914.024z" fill="#FCEE21" opacity=".2"/></svg>