<svg width="20" height="22" fill="none" xmlns="http://www.w3.org/2000/svg"><path fill-rule="evenodd" clip-rule="evenodd" d="M3 3.75c-.69 0-1.25.56-1.25 1.25v14c0 .69.56 1.25 1.25 1.25h14c.69 0 1.25-.56 1.25-1.25V5c0-.69-.56-1.25-1.25-1.25H3zM.25 5A2.75 2.75 0 013 2.25h14A2.75 2.75 0 0119.75 5v14A2.75 2.75 0 0117 21.75H3A2.75 2.75 0 01.25 19V5z" fill="#fff"/><path fill-rule="evenodd" clip-rule="evenodd" d="M14 .25a.75.75 0 01.75.75v4a.75.75 0 01-1.5 0V1A.75.75 0 0114 .25zm-8 0a.75.75 0 01.75.75v4a.75.75 0 01-1.5 0V1A.75.75 0 016 .25zM.25 9A.75.75 0 011 8.25h18a.75.75 0 010 1.5H1A.75.75 0 01.25 9z" fill="#fff"/></svg>