<svg width="114" height="112" fill="none" xmlns="http://www.w3.org/2000/svg"><path d="M75.496 97.047c20.768-12.043 27.869-38.704 15.892-59.54C79.41 16.67 52.872 9.517 32.104 21.56S4.234 60.264 16.212 81.1c11.977 20.836 38.516 27.99 59.284 15.947z" fill="#FFE6A3" stroke="#FFD324" stroke-width="10"/><path d="M41.3 58.853a20.359 20.359 0 01.384-11.764 20.271 20.271 0 016.826-9.568 20.115 20.115 0 0122.38-1.473 20.239 20.239 0 018.01 8.59 20.352 20.352 0 011.91 11.614 20.315 20.315 0 01-4.837 10.721 20.173 20.173 0 01-9.951 6.216 20.13 20.13 0 01-15.313-2.034A20.284 20.284 0 0141.3 58.853zm37.177-10.005a18.395 18.395 0 00-5.612-9.064 18.233 18.233 0 00-20.163-2.666 18.336 18.336 0 00-7.755 7.296 18.449 18.449 0 001.33 20.383 18.305 18.305 0 008.637 6.216 18.227 18.227 0 0010.62.35 18.34 18.34 0 0011.105-8.571 18.481 18.481 0 001.838-13.944z" fill="#27120A"/><path d="M86.03 49.095a3.867 3.867 0 00-1.648-1.477l.136-.202c.143-.219.27-.447.383-.682l.124-.282c.066-.16.131-.318.189-.483l.078-.265v-.041a7.144 7.144 0 00.173-.794c.02-.137.041-.286.054-.434.012-.15 0-.236.02-.348v-.761c0-.132 0-.264-.029-.388-.028-.124-.028-.248-.049-.364-.02-.116-.037-.244-.062-.368l-.078-.372-.082-.323-.112-.413-.098-.302-.136-.385-.087-.223-.189-.45V39.7c-2.058-4.672-6.962-8.948-7.167-9.126-.704-.612-7.044-5.946-13.026-5.321a8.41 8.41 0 00-1.309.24c-.95.252-2.219 1.145-3.544 2.48a3.378 3.378 0 00-1.38-.897 16.574 16.574 0 00-6.891-.905 10.393 10.393 0 00-4.739 1.639 10.452 10.452 0 00-3.429 3.67l-.202.364a2.84 2.84 0 00-1.276-.17c-.273.03-.54.099-.794.203-10.165 4.197-10.799 12.67-10.272 17.346.05.413.103.827.169 1.186l.09.513v.05l.108.517a3.54 3.54 0 001.379 2.096 3.515 3.515 0 002.416.65 3.547 3.547 0 002.199-1.1 7.983 7.983 0 014.574-2.37 3.358 3.358 0 001.716-.827 4.978 4.978 0 002.363.376 16.52 16.52 0 016.15.736 3.278 3.278 0 002.948-.517l.058.1a14.303 14.303 0 00.362.562l.074.108c.1.14.202.28.317.413l.083.116c.103.132.21.26.346.413l.094.116.354.414c.037.04.078.082.111.124l.363.368.144.144.32.302.215.199a21.877 21.877 0 001.14.93 19.02 19.02 0 001.717 1.17c.19.116.383.224.572.331.379.21.766.413 1.153.579.193.087.383.17.572.248.358.145.725.277 1.091.413a3.321 3.321 0 00.202 2.783c.206.372.412.761.597 1.187l.037.083c.074.157.144.318.218.496l.086.215c.062.145.12.297.177.45l.083.224c.082.223.16.455.222.666l.025.078c.066.22.131.447.19.674l.053.232c.045.182.086.372.123.562l.045.231c.05.261.095.526.128.794.11.865.446 1.685.972 2.378a3.414 3.414 0 00-.531 1.98v.604a9.837 9.837 0 01-.079 1.013c-.02.153-.049.315-.078.472v.074c-.033.161-.07.33-.123.513v.045a6.217 6.217 0 01-.157.492v.058a9.795 9.795 0 01-.206.5l-.04.096a8.76 8.76 0 01-.268.525l-.042.066c-.119.21-.222.376-.329.53a3.538 3.538 0 00.984 4.99 3.508 3.508 0 001.865.558h1.445c.23 0 .47-.029.712-.053l.292-.03c.157 0 .317-.032.478-.053h.107c.547-.075 1.1-.17 1.647-.294l-.457-2.038.498 2.03c3.627-.827 6.562-2.543 8.732-5.16a17.465 17.465 0 003.593-8.142 2.848 2.848 0 00-.493-2.2c.131-.115.263-.223.411-.343.148-.12.338-.322.51-.496l.145-.153.3-.33.14-.166.037-.046.251-.31.161-.215.214-.302.152-.227.198-.319.132-.227.164-.306s.091-.17.124-.244c.033-.074.099-.21.152-.326l.02-.046.075-.174c.074-.173.14-.351.206-.529l.066-.21.033-.1.07-.227.07-.265v-.07l.057-.228.062-.293.041-.24c0-.104.037-.207.05-.319l.028-.223.037-.314v-.694c.079-3.313-1.247-6.27-2.37-8.175z" fill="#4D2211"/><path d="M58.298 29.718c-1.683 2.895-5.294 9.982-4.26 16.66a1.246 1.246 0 01-.399 1.162 1.233 1.233 0 01-1.199.248 18.598 18.598 0 00-6.932-.827 2.872 2.872 0 01-2.01-.59 2.896 2.896 0 01-1.082-1.8c-.527-2.924-.626-7.857 2.573-13.306 3.388-5.79 9.711-4.474 12.61-3.482a1.316 1.316 0 01.81.8 1.329 1.329 0 01-.11 1.135z" fill="#DE9F2D"/><path opacity=".5" d="M56.454 33.291l-.074-.05c-.362-.186-.68.335-.856.625-.655 1.062-.741 2.381-1.38 3.448-.358.6-.905 1.05-1.3 1.621-.478.703-.577 1.555-.745 2.37-.227 1.1-.573 2.116-1.482 2.832-1.462 1.15-4.014 1.38-5.706.67-2.404-1.01-2.627-3.792-2.536-6.347a18.34 18.34 0 00.041 6.12c.123.714.51 1.357 1.082 1.8a2.88 2.88 0 002.01.59 18.598 18.598 0 016.932.826 1.23 1.23 0 001.552-.776c.07-.203.086-.422.046-.634-.725-4.697.84-9.589 2.416-13.095z" fill="#99542B"/><path d="M41.716 32.543a.791.791 0 011.069.568.801.801 0 01-.032.453c-1.008 2.642-2.511 7.951-.502 12.334.305.666-.26 1.435-.98 1.55a10.088 10.088 0 00-5.763 3.003 1.436 1.436 0 01-2.11.02 1.445 1.445 0 01-.36-.694c-.96-4.416-1.264-13.128 8.678-17.234z" fill="#DE9F2D"/><path opacity=".5" d="M41.42 38.584c-.33-.046-.412.186-.569.62a6.454 6.454 0 00-.341 1.63c-.128 1.136-.058 2.298-.297 3.414-.411 1.994-2.47 3.722-4.364 4.293-1.42.413-2.548.148-3.149-.827.076.694.19 1.385.342 2.067a1.445 1.445 0 001.03 1.097 1.432 1.432 0 001.44-.423 10.088 10.088 0 015.764-3.002c.72-.116 1.284-.885.98-1.55-1.084-2.361-1.145-4.97-.837-7.32z" fill="#99542B"/><path d="M82.851 45.018c3.47-5.326-6.686-14.13-6.686-14.13s-6.998-6.086-12.445-4.643c-3.433.91-15.232 16.312-4.22 25.277 11.013 8.964 20.716-2.456 23.351-6.504z" fill="#DE9F2D"/><path opacity=".5" d="M81.307 36.657c.066.145.132.293.19.446 1.21 3.205.242 6.657-1.898 9.209-.91 1.091-1.98 2.034-3.376 2.402-.898.24-1.84.207-2.746.413a11.414 11.414 0 00-2.882 1.241c-3.022 1.588-7.035 1.898-10.04.078a8.517 8.517 0 01-2.907-3.051 13.626 13.626 0 01-.996-2.241c-.136-.38-.445-1.315-.898-1.435l-.745.153c.379 2.737 1.704 5.375 4.47 7.65 11.005 8.968 20.717-2.456 23.351-6.505 1.618-2.43.33-5.635-1.523-8.36z" fill="#99542B"/><path d="M82.139 48.375c-2.52 2.894-8.485 7.488-15.195 7.856a1.232 1.232 0 00-1.052.628 1.245 1.245 0 00.002 1.229 18.716 18.716 0 012.227 6.649c.087.72.44 1.381.99 1.852a2.87 2.87 0 001.978.69c2.956-.086 7.773-1 12.433-5.271 4.94-4.52 2.359-10.466.795-13.108-.433-.728-1.63-1.182-2.178-.525z" fill="#DE9F2D"/><path opacity=".5" d="M85.107 58.534c-.622 1.142-1.416 2.3-2.552 2.973-1.05.625-2.182.58-3.356.575a3.164 3.164 0 00-2.47.996c-.45.448-.939.853-1.461 1.212-.988.662-2.17 1.24-3.384 1.2-1.951-.05-2.54-1.795-3.26-3.309a9.485 9.485 0 00-1.367-2.381 1.205 1.205 0 00-.713-.414 18.053 18.053 0 011.577 5.375c.087.72.44 1.382.99 1.853.55.471 1.256.717 1.978.69 2.956-.087 7.773-1 12.433-5.272a8.305 8.305 0 002.15-2.885 8.338 8.338 0 00.732-3.528 16.918 16.918 0 01-1.297 2.915z" fill="#99542B"/><path d="M82.97 65.717a.801.801 0 00-.332-.817.792.792 0 00-.878-.01c-2.363 1.538-7.22 4.135-11.91 3.052-.712-.162-1.342.554-1.31 1.281a10.176 10.176 0 01-1.724 6.281 1.443 1.443 0 00.42 2.057c.222.138.479.212.74.213 4.505.07 13.06-1.439 14.994-12.057z" fill="#DE9F2D"/><path opacity=".5" d="M75.865 75.339c-1.515.541-4.405 1.133-5.517-.476-.634-.914-.469-2.175-.551-3.22-.066-.774-.268-1.882-1.235-1.655a10.061 10.061 0 01-1.738 5.528 1.443 1.443 0 00.42 2.057c.223.138.48.212.741.214 3.183.037 8.382-.712 11.844-4.892a12.624 12.624 0 01-3.964 2.444z" fill="#99542B"/><path d="M80.117 37.955a1.781 1.781 0 00-.382-.798c-2.059-2.58-4.55-5.49-7.378-7.244-2.194-1.36-6.068-2.48-8.513-1.447-5.546 2.353-8.76 12.59-6.027 17.842 2.82 5.42 11.815 4.263 16.084 1.534 2.223-1.422 5.352-3.9 6.398-6.43a3.931 3.931 0 00-.182-3.457zm3.751 12.335a.712.712 0 00-.593-.523.706.706 0 00-.276.018.673.673 0 00-.683.327c-1.272 1.869-3.549 3.308-5.484 4.428a19.91 19.91 0 01-3.557 1.596c-1.074.36-2.45.46-3.425 1.042-2.54 1.526-.333 5.731 1.956 6.203 1.61.335 3.063-.414 4.232-1.456.387-.347.765-1.373 1.19-1.683.93-.682 1.457.228 2.667.302a2.801 2.801 0 001.647-.273c3.474-1.935 3.35-6.78 2.326-9.981zm-3.792 16.692c-.168.099-.333.21-.494.326-1.473.865-3.174 1.162-4.853 1.36-1.038.12-2.326 0-3.113.828-1.107 1.166-.658 3.308.544 4.246 1.515 1.175 3.487.281 4.87-.645 1.568-1.054 4.252-3.27 4.36-5.313a.852.852 0 00-.4-.826.84.84 0 00-.914.024z" fill="#FCEE21" opacity=".2"/></svg>